<svg width="82" height="82" viewBox="0 0 82 82" fill="none" xmlns="http://www.w3.org/2000/svg">
<g clip-path="url(#clip0_5_18)">
<path fill-rule="evenodd" clip-rule="evenodd" d="M8.78571 5.85714C8.00901 5.85714 7.26412 6.16569 6.7149 6.7149C6.16569 7.26412 5.85714 8.00901 5.85714 8.78571V73.2143C5.85714 73.991 6.16569 74.7359 6.7149 75.2851C7.26412 75.8343 8.00901 76.1429 8.78571 76.1429H49.7857C50.5624 76.1429 51.3073 75.8343 51.8565 75.2851C52.4057 74.7359 52.7143 73.991 52.7143 73.2143V58.5714C52.7143 56.954 54.0255 55.6429 55.6429 55.6429C57.2603 55.6429 58.5714 56.954 58.5714 58.5714V73.2143C58.5714 75.5444 57.6458 77.7791 55.9982 79.4267C54.3505 81.0744 52.1158 82 49.7857 82H8.78571C6.4556 82 4.22092 81.0744 2.57328 79.4267C0.925636 77.7791 0 75.5444 0 73.2143V8.78571C0 6.4556 0.925635 4.22092 2.57328 2.57328C4.22092 0.925635 6.4556 0 8.78571 0H49.7857C52.1158 0 54.3505 0.925636 55.9982 2.57328C57.6458 4.22092 58.5714 6.4556 58.5714 8.78571V23.4286C58.5714 25.046 57.2603 26.3571 55.6429 26.3571C54.0255 26.3571 52.7143 25.046 52.7143 23.4286V8.78571C52.7143 8.00901 52.4057 7.26412 51.8565 6.7149C51.3073 6.16569 50.5624 5.85714 49.7857 5.85714H8.78571Z" fill="white"/>
<path fill-rule="evenodd" clip-rule="evenodd" d="M23.4286 41C23.4286 39.3826 24.7398 38.0714 26.3572 38.0714H73.2143C74.8317 38.0714 76.1429 39.3826 76.1429 41C76.1429 42.6174 74.8317 43.9286 73.2143 43.9286H26.3572C24.7398 43.9286 23.4286 42.6174 23.4286 41Z" fill="white"/>
<path fill-rule="evenodd" clip-rule="evenodd" d="M40.1423 27.2149C41.2859 28.3586 41.2859 30.2129 40.1423 31.3565L30.4988 41L40.1423 50.6435C41.2859 51.7872 41.2859 53.6414 40.1423 54.7851C38.9986 55.9288 37.1443 55.9288 36.0006 54.7851L24.2863 43.0708C23.1427 41.9271 23.1427 40.0729 24.2863 38.9292L36.0006 27.2149C37.1443 26.0712 38.9986 26.0712 40.1423 27.2149Z" fill="white"/>
</g>
<defs>
<clipPath id="clip0_5_18">
<rect width="82" height="82" fill="white"/>
</clipPath>
</defs>
</svg>
