<svg width="82" height="82" viewBox="0 0 82 82" fill="none" xmlns="http://www.w3.org/2000/svg">
<g clip-path="url(#clip0_5_18)">
<g clip-path="url(#clip1_5_18)">
<path fill-rule="evenodd" clip-rule="evenodd" d="M41 20.5C34.5304 20.5 29.2857 25.7447 29.2857 32.2143C29.2857 38.6839 34.5304 43.9286 41 43.9286C47.4696 43.9286 52.7143 38.6839 52.7143 32.2143C52.7143 25.7447 47.4696 20.5 41 20.5ZM23.4286 32.2143C23.4286 22.5098 31.2956 14.6429 41 14.6429C50.7044 14.6429 58.5714 22.5098 58.5714 32.2143C58.5714 41.9187 50.7044 49.7857 41 49.7857C31.2956 49.7857 23.4286 41.9187 23.4286 32.2143Z" fill="white"/>
<path fill-rule="evenodd" clip-rule="evenodd" d="M41 58.5794C36.4787 58.5794 32.0334 59.7425 28.0914 61.9569C24.1494 64.1713 20.8434 67.3624 18.491 71.2237C17.6495 72.6049 15.8476 73.0425 14.4664 72.201C13.0851 71.3595 12.6475 69.5576 13.489 68.1764C16.3641 63.4571 20.4048 59.5567 25.2228 56.8503C30.0408 54.1438 35.4739 52.7223 41 52.7223C46.5261 52.7223 51.9593 54.1438 56.7773 56.8503C61.5952 59.5567 65.636 63.4571 68.511 68.1764C69.3525 69.5576 68.915 71.3595 67.5337 72.201C66.1524 73.0425 64.3505 72.6049 63.509 71.2237C61.1567 67.3624 57.8506 64.1713 53.9087 61.9569C49.9667 59.7425 45.5214 58.5794 41 58.5794Z" fill="white"/>
<path fill-rule="evenodd" clip-rule="evenodd" d="M41 5.85714C21.5911 5.85714 5.85714 21.5911 5.85714 41C5.85714 60.4089 21.5911 76.1429 41 76.1429C60.4089 76.1429 76.1429 60.4089 76.1429 41C76.1429 21.5911 60.4089 5.85714 41 5.85714ZM0 41C0 18.3563 18.3563 0 41 0C63.6437 0 82 18.3563 82 41C82 63.6437 63.6437 82 41 82C18.3563 82 0 63.6437 0 41Z" fill="white"/>
</g>
</g>
<defs>
<clipPath id="clip0_5_18">
<rect width="82" height="82" fill="white"/>
</clipPath>
<clipPath id="clip1_5_18">
<rect width="82" height="82" fill="white"/>
</clipPath>
</defs>
</svg>
