<svg width="86" height="86" viewBox="0 0 86 86" fill="none" xmlns="http://www.w3.org/2000/svg">
<g clip-path="url(#clip0_101_2)">
<path fill-rule="evenodd" clip-rule="evenodd" d="M43 21.5C36.2148 21.5 30.7143 27.0005 30.7143 33.7857C30.7143 40.5709 36.2148 46.0714 43 46.0714C49.7852 46.0714 55.2857 40.5709 55.2857 33.7857C55.2857 27.0005 49.7852 21.5 43 21.5ZM24.5714 33.7857C24.5714 23.6079 32.8222 15.3571 43 15.3571C53.1778 15.3571 61.4286 23.6079 61.4286 33.7857C61.4286 43.9635 53.1778 52.2143 43 52.2143C32.8222 52.2143 24.5714 43.9635 24.5714 33.7857Z" fill="white"/>
<path fill-rule="evenodd" clip-rule="evenodd" d="M43 61.437C38.2581 61.437 33.5959 62.6568 29.4617 64.9792C25.3274 67.3016 21.8601 70.6484 19.393 74.698C18.5105 76.1466 16.6207 76.6055 15.172 75.723C13.7234 74.8405 13.2645 72.9507 14.147 71.502C17.1623 66.5525 21.4002 62.4619 26.4532 59.6235C31.5061 56.785 37.2043 55.2941 43 55.2941C48.7957 55.2941 54.4939 56.785 59.5468 59.6235C64.5998 62.4619 68.8377 66.5525 71.853 71.502C72.7355 72.9507 72.2766 74.8405 70.828 75.723C69.3793 76.6055 67.4895 76.1466 66.607 74.698C64.1399 70.6484 60.6726 67.3016 56.5383 64.9792C52.4041 62.6568 47.7419 61.437 43 61.437Z" fill="white"/>
<path fill-rule="evenodd" clip-rule="evenodd" d="M43 6.14286C22.6444 6.14286 6.14286 22.6444 6.14286 43C6.14286 63.3556 22.6444 79.8571 43 79.8571C63.3556 79.8571 79.8571 63.3556 79.8571 43C79.8571 22.6444 63.3556 6.14286 43 6.14286ZM0 43C0 19.2518 19.2518 0 43 0C66.7482 0 86 19.2518 86 43C86 66.7482 66.7482 86 43 86C19.2518 86 0 66.7482 0 43Z" fill="white"/>
</g>
<defs>
<clipPath id="clip0_101_2">
<rect width="86" height="86" fill="white"/>
</clipPath>
</defs>
</svg>
