<svg width="86" height="86" viewBox="0 0 86 86" fill="none" xmlns="http://www.w3.org/2000/svg">
<g clip-path="url(#clip0_101_16)">
<path fill-rule="evenodd" clip-rule="evenodd" d="M9.21429 6.14286C8.39969 6.14286 7.61846 6.46645 7.04246 7.04246C6.46645 7.61846 6.14286 8.39969 6.14286 9.21429V76.7857C6.14286 77.6003 6.46645 78.3815 7.04246 78.9575C7.61846 79.5335 8.39969 79.8571 9.21429 79.8571H52.2143C53.0289 79.8571 53.8101 79.5335 54.3861 78.9575C54.9621 78.3815 55.2857 77.6003 55.2857 76.7857V64.5C55.2857 62.8037 56.6608 61.4286 58.3571 61.4286C60.0535 61.4286 61.4286 62.8037 61.4286 64.5V76.7857C61.4286 79.2295 60.4578 81.5732 58.7298 83.3012C57.0018 85.0292 54.6581 86 52.2143 86H9.21429C6.7705 86 4.42681 85.0292 2.6988 83.3012C0.970789 81.5732 0 79.2295 0 76.7857V9.21429C0 6.7705 0.970788 4.42682 2.6988 2.6988C4.42682 0.970788 6.7705 0 9.21429 0H52.2143C54.6581 0 57.0018 0.970789 58.7298 2.6988C60.4578 4.42681 61.4286 6.7705 61.4286 9.21429V21.5C61.4286 23.1963 60.0535 24.5714 58.3571 24.5714C56.6608 24.5714 55.2857 23.1963 55.2857 21.5V9.21429C55.2857 8.39969 54.9621 7.61846 54.3861 7.04246C53.8101 6.46645 53.0289 6.14286 52.2143 6.14286H9.21429Z" fill="white"/>
<path fill-rule="evenodd" clip-rule="evenodd" d="M36.8571 43C36.8571 41.3037 38.2323 39.9286 39.9286 39.9286H82.9286C84.6249 39.9286 86 41.3037 86 43C86 44.6963 84.6249 46.0714 82.9286 46.0714H39.9286C38.2323 46.0714 36.8571 44.6963 36.8571 43Z" fill="white"/>
<path fill-rule="evenodd" clip-rule="evenodd" d="M68.471 28.5425C69.6705 27.343 71.6152 27.343 72.8147 28.5425L85.1004 40.8282C86.2999 42.0276 86.2999 43.9724 85.1004 45.1718L72.8147 57.4575C71.6152 58.657 69.6705 58.657 68.471 57.4575C67.2715 56.2581 67.2715 54.3133 68.471 53.1139L78.5849 43L68.471 32.8861C67.2715 31.6866 67.2715 29.7419 68.471 28.5425Z" fill="white"/>
</g>
<defs>
<clipPath id="clip0_101_16">
<rect width="86" height="86" fill="white"/>
</clipPath>
</defs>
</svg>
