<svg width="86" height="86" viewBox="0 0 86 86" fill="none" xmlns="http://www.w3.org/2000/svg">
<g clip-path="url(#clip0_101_10)">
<path fill-rule="evenodd" clip-rule="evenodd" d="M62.9768 21.9187C64.4418 22.7738 64.9363 24.6546 64.0813 26.1196L44.3649 59.9016C44.3645 59.9023 44.3641 59.9029 44.3637 59.9035C43.9202 60.6653 43.3179 61.3228 42.5976 61.8312C41.8824 62.336 41.0677 62.6821 40.208 62.8464C39.3375 63.0187 38.4397 62.9965 37.5786 62.7813C36.719 62.5664 35.9176 62.1644 35.2314 61.6042L22.6527 51.5412C21.3281 50.4816 21.1134 48.5487 22.1731 47.2241C23.2327 45.8996 25.1656 45.6848 26.4901 46.7445L39.0616 56.8016L58.7759 23.0232C59.6309 21.5582 61.5117 21.0637 62.9768 21.9187Z" fill="white"/>
<path fill-rule="evenodd" clip-rule="evenodd" d="M43 6.14286C22.6444 6.14286 6.14286 22.6444 6.14286 43C6.14286 63.3556 22.6444 79.8571 43 79.8571C63.3556 79.8571 79.8571 63.3556 79.8571 43C79.8571 22.6444 63.3556 6.14286 43 6.14286ZM0 43C0 19.2518 19.2518 0 43 0C66.7482 0 86 19.2518 86 43C86 66.7482 66.7482 86 43 86C19.2518 86 0 66.7482 0 43Z" fill="white"/>
</g>
<defs>
<clipPath id="clip0_101_10">
<rect width="86" height="86" fill="white"/>
</clipPath>
</defs>
</svg>
