<svg xmlns="http://www.w3.org/2000/svg" width="14.108" height="12.414" viewBox="0 0 14.108 12.414">
  <g id="interface-edit-view-off-interface-white" transform="translate(0.054 -0.793)">
    <path id="Path_2" data-name="Path 2" d="M12.29,5.4c.38.34.7.67.94.93a1,1,0,0,1,0,1.34C12.18,8.8,9.79,11,7,11H6.6" fill="none" stroke="#fff" stroke-linecap="round" stroke-linejoin="round" stroke-width="1"/>
    <path id="Path_3" data-name="Path 3" d="M3.87,10.13A12.4,12.4,0,0,1,.77,7.67a1,1,0,0,1,0-1.34C1.82,5.2,4.21,3,7,3a6.56,6.56,0,0,1,3.13.87" fill="none" stroke="#fff" stroke-linecap="round" stroke-linejoin="round" stroke-width="1"/>
    <line id="Line_1" data-name="Line 1" x1="11" y2="11" transform="translate(1.5 1.5)" fill="none" stroke="#fff" stroke-linecap="round" stroke-linejoin="round" stroke-width="1"/>
    <path id="Path_4" data-name="Path 4" d="M5.59,8.41A1.994,1.994,0,1,1,8.41,5.59" fill="none" stroke="#fff" stroke-linecap="round" stroke-linejoin="round" stroke-width="1"/>
    <path id="Path_5" data-name="Path 5" d="M8.74,8A2,2,0,0,1,8,8.73" fill="none" stroke="#fff" stroke-linecap="round" stroke-linejoin="round" stroke-width="1"/>
  </g>
</svg>
