<svg id="Interface_Delete_Square" data-name="Interface Delete Square" xmlns="http://www.w3.org/2000/svg" width="14" height="14" viewBox="0 0 14 14">
  <g id="Group_2" data-name="Group 2">
    <path id="Line_2" data-name="Line 2" d="M0,4.74a.5.5,0,0,1-.354-.146.5.5,0,0,1,0-.707l4.24-4.24a.5.5,0,0,1,.707,0,.5.5,0,0,1,0,.707L.354,4.594A.5.5,0,0,1,0,4.74Z" transform="translate(4.88 4.88)" fill="#fff"/>
    <path id="Line_3" data-name="Line 3" d="M4.24,4.74a.5.5,0,0,1-.354-.146L-.354.354a.5.5,0,0,1,0-.707.5.5,0,0,1,.707,0l4.24,4.24a.5.5,0,0,1-.354.854Z" transform="translate(4.88 4.88)" fill="#fff"/>
  </g>
  <path id="Rectangle_2" data-name="Rectangle 2" d="M3-.5h7A3.5,3.5,0,0,1,13.5,3v7A3.5,3.5,0,0,1,10,13.5H3A3.5,3.5,0,0,1-.5,10V3A3.5,3.5,0,0,1,3-.5Zm7,13A2.5,2.5,0,0,0,12.5,10V3A2.5,2.5,0,0,0,10,.5H3A2.5,2.5,0,0,0,.5,3v7A2.5,2.5,0,0,0,3,12.5Z" transform="translate(0.5 0.5)" fill="#fff"/>
</svg>
